<svg width="17" height="20" viewBox="0 0 17 20" fill="none" xmlns="http://www.w3.org/2000/svg">
<path d="M1.56747 1.00003C1.90214 0.956577 2.24151 1.03081 2.52747 1.21003L12.2775 6.75253L9.80997 9.25003L1.56747 1.00003ZM0.817471 1.75003C0.770451 1.91331 0.747707 2.08262 0.749971 2.25253V17.7475C0.747707 17.9174 0.770451 18.0867 0.817471 18.25L9.06747 10L0.817471 1.75003ZM9.81747 10.75L1.56747 19C1.9023 19.0474 2.24301 18.9729 2.52747 18.79L12.2775 13.2475L9.81747 10.75ZM16.2075 8.99503L13.2525 7.31503L10.5525 10L13.245 12.6925L16.2 11.0125C17.175 10.4575 17.175 9.54253 16.2 8.98753L16.2075 8.99503Z" fill="white"/>
</svg>
