<svg width="235" height="66" viewBox="0 0 235 66" fill="none" xmlns="http://www.w3.org/2000/svg">
<path d="M7.97298 1.60817L8.52533 1.60817L8.52533 5.47461L7.89013 5.47461L7.89013 2.28756L7.11131 2.50849L6.95666 1.96719L7.97298 1.60817ZM11.7956 4.99959C11.5305 5.36414 11.1586 5.54641 10.6799 5.54641C10.2012 5.54641 9.82742 5.36414 9.55861 4.99959C9.29348 4.63504 9.16092 4.14897 9.16092 3.54139C9.16092 2.9338 9.29348 2.44774 9.55861 2.08319C9.82742 1.71864 10.2012 1.53636 10.6799 1.53636C11.1586 1.53636 11.5305 1.71864 11.7956 2.08319C12.0644 2.44774 12.1988 2.9338 12.1988 3.54139C12.1988 4.14897 12.0644 4.63504 11.7956 4.99959ZM10.6799 4.92778C10.9671 4.92778 11.1862 4.80811 11.3372 4.56876C11.4881 4.3294 11.5636 3.98695 11.5636 3.54139C11.5636 3.09582 11.4881 2.75337 11.3372 2.51402C11.1862 2.27467 10.9671 2.15499 10.6799 2.15499C10.3963 2.15499 10.1772 2.27467 10.0226 2.51402C9.87161 2.75337 9.79612 3.09583 9.79612 3.54139C9.79612 3.98695 9.87161 4.3294 10.0226 4.56876C10.1772 4.80811 10.3963 4.92778 10.6799 4.92778ZM15.2085 5.47461L14.496 5.47461L13.3636 4.19868L13.3636 5.47461L12.7671 5.47461L12.7671 1.60817L13.3636 1.60816L13.3636 3.93355L14.4352 2.71286L15.1643 2.71286L13.9491 4.06612L15.2085 5.47461Z" fill="#718EBF"/>
<path d="M13.5599 19.5678L13.5599 20.1588L13.118 20.1588L13.118 20.8547L12.4773 20.8547L12.4773 20.1588L10.5772 20.1588L10.5772 19.5678L11.9084 16.9883L12.5988 16.9883L11.2677 19.5678L12.4773 19.5678L12.4773 18.5625L13.118 18.5625L13.118 19.5678L13.5599 19.5678ZM16.4436 20.8547L15.7311 20.8547L14.5988 19.5788L14.5988 20.8547L14.0022 20.8547L14.0022 16.9883L14.5988 16.9883L14.5988 19.3137L15.6703 18.093L16.3994 18.093L15.1843 19.4462L16.4436 20.8547Z" fill="#718EBF"/>
<path d="M9.2807 36.2346L9.2807 35.7375L10.6284 34.3622C10.9562 34.0344 11.12 33.7509 11.12 33.5115C11.12 33.3237 11.0629 33.1783 10.9488 33.0752C10.8383 32.9684 10.6966 32.915 10.5235 32.915C10.1994 32.915 9.96009 33.0752 9.80543 33.3955L9.26965 33.0807C9.39117 32.8229 9.5624 32.6278 9.78334 32.4952C10.0043 32.3627 10.2492 32.2964 10.518 32.2964C10.8567 32.2964 11.1476 32.4032 11.3907 32.6167C11.6337 32.8303 11.7552 33.1212 11.7552 33.4894C11.7552 33.8835 11.5361 34.3032 11.0979 34.7488L10.2252 35.6215L11.827 35.6215L11.827 36.2346L9.2807 36.2346ZM14.8224 36.2346L14.1099 36.2346L12.9776 34.9587L12.9776 36.2346L12.381 36.2346L12.381 32.3682L12.9776 32.3682L12.9776 34.6936L14.0491 33.4729L14.7782 33.4729L13.563 34.8261L14.8224 36.2346Z" fill="#718EBF"/>
<path d="M14.3677 51.9503C14.1026 52.3148 13.7306 52.4971 13.2519 52.4971C12.7732 52.4971 12.3995 52.3148 12.1307 51.9503C11.8655 51.5857 11.733 51.0997 11.733 50.4921C11.733 49.8845 11.8655 49.3984 12.1307 49.0339C12.3995 48.6693 12.7732 48.487 13.2519 48.487C13.7306 48.487 14.1026 48.6693 14.3677 49.0339C14.6365 49.3984 14.7709 49.8845 14.7709 50.4921C14.7709 51.0997 14.6365 51.5857 14.3677 51.9503ZM13.2519 51.8785C13.5392 51.8785 13.7583 51.7588 13.9092 51.5194C14.0602 51.2801 14.1357 50.9376 14.1357 50.4921C14.1357 50.0465 14.0602 49.7041 13.9092 49.4647C13.7583 49.2254 13.5392 49.1057 13.2519 49.1057C12.9684 49.1057 12.7493 49.2254 12.5946 49.4647C12.4437 49.7041 12.3682 50.0465 12.3682 50.4921C12.3682 50.9376 12.4437 51.2801 12.5946 51.5194C12.7493 51.7588 12.9684 51.8785 13.2519 51.8785Z" fill="#718EBF"/>
<path d="M36.4422 62.2088C36.0703 62.2088 35.7536 62.1241 35.4921 61.9547C35.2344 61.7853 35.0539 61.5533 34.9508 61.2587L35.4977 60.9384C35.6523 61.3729 35.9727 61.5901 36.4587 61.5901C36.6981 61.5901 36.8767 61.5441 36.9945 61.452C37.116 61.3563 37.1768 61.233 37.1768 61.082C37.1768 60.9236 37.1124 60.804 36.9835 60.7229C36.8546 60.6383 36.6263 60.5462 36.2986 60.4468C36.1144 60.3915 35.9653 60.34 35.8512 60.2921C35.737 60.2442 35.6155 60.178 35.4866 60.0933C35.3614 60.0049 35.2675 59.8963 35.2049 59.7674C35.1423 59.6385 35.111 59.4875 35.111 59.3145C35.111 58.972 35.2325 58.7014 35.4756 58.5025C35.7186 58.3 36.0113 58.1987 36.3538 58.1987C36.6631 58.1987 36.9338 58.2742 37.1657 58.4252C37.3977 58.5762 37.5763 58.7842 37.7015 59.0493L37.1657 59.3586C37.0037 58.9978 36.7331 58.8173 36.3538 58.8173C36.1697 58.8173 36.0224 58.8615 35.9119 58.9499C35.8014 59.0346 35.7462 59.1506 35.7462 59.2979C35.7462 59.4415 35.8014 59.5557 35.9119 59.6403C36.0261 59.7214 36.2304 59.8079 36.525 59.8999C36.6723 59.9478 36.7791 59.9846 36.8454 60.0104C36.9153 60.0325 37.0111 60.0693 37.1326 60.1209C37.2578 60.1724 37.3517 60.224 37.4143 60.2755C37.4769 60.3271 37.5432 60.3915 37.6132 60.4689C37.6868 60.5462 37.7383 60.6346 37.7678 60.734C37.7973 60.8334 37.812 60.9457 37.812 61.0709C37.812 61.4207 37.685 61.6988 37.4309 61.905C37.1805 62.1075 36.8509 62.2088 36.4422 62.2088Z" fill="#718EBF"/>
<path d="M24.1763 47.0662C24.1763 45.9222 25.1036 44.9949 26.2476 44.9949L44.4918 44.9949C45.6357 44.9949 46.5631 45.9222 46.5631 47.0662L46.5631 54.7087L24.1763 54.7087L24.1763 47.0662Z" fill="#E8F2FF"/>
<path d="M64.781 58.2703L64.781 62.1367L64.1458 62.1367L64.1458 59.3805L62.9693 61.3248L62.892 61.3248L61.7155 59.375L61.7155 62.1367L61.0803 62.1367L61.0803 58.2703L61.7652 58.2703L62.9307 60.2035L64.1017 58.2703L64.781 58.2703Z" fill="#718EBF"/>
<path d="M51.041 42.209C51.041 41.0651 51.9684 40.1377 53.1123 40.1377L71.3565 40.1377C72.5005 40.1377 73.4278 41.065 73.4278 42.209L73.4278 54.7084L51.041 54.7084L51.041 42.209Z" fill="#E8F2FF"/>
<path d="M90.7005 58.2705L90.7005 58.8781L89.6124 58.8781L89.6124 62.137L88.9772 62.137L88.9772 58.8781L87.8836 58.8781L87.8836 58.2705L90.7005 58.2705Z" fill="#718EBF"/>
<path d="M77.9058 22.782C77.9058 21.6381 78.8331 20.7107 79.9771 20.7107L98.2213 20.7107C99.3652 20.7107 100.293 21.638 100.293 22.782L100.293 54.709L77.9058 54.709L77.9058 22.782Z" fill="#E8F2FF"/>
<path d="M114.795 62.1382L113.701 58.2717L114.369 58.2717L115.181 61.2931L116.059 58.2717L116.645 58.2717L117.518 61.2931L118.33 58.2717L118.998 58.2717L117.904 62.1382L117.17 62.1382L116.352 59.3157L115.529 62.1382L114.795 62.1382Z" fill="#718EBF"/>
<path d="M104.77 31.6873C104.77 30.5433 105.697 29.616 106.841 29.616L125.086 29.616C126.229 29.616 127.157 30.5433 127.157 31.6873L127.157 54.71L104.77 54.71L104.77 31.6873Z" fill="#05796B"/>
<path d="M144.429 58.2715L144.429 58.8791L143.34 58.8791L143.34 62.1379L142.705 62.1379L142.705 58.8791L141.612 58.8791L141.612 58.2715L144.429 58.2715Z" fill="#718EBF"/>
<path d="M131.634 9.02053C131.634 7.87658 132.561 6.94922 133.705 6.94922L151.949 6.94922C153.093 6.94921 154.021 7.87657 154.021 9.02052L154.021 54.7087L131.634 54.7087L131.634 9.02053Z" fill="#05796B"/>
<path d="M172.226 58.8796L170.597 58.8796L170.597 59.9622L172.171 59.9622L172.171 60.5698L170.597 60.5698L170.597 62.1384L169.962 62.1384L169.962 58.272L172.226 58.272L172.226 58.8796Z" fill="#718EBF"/>
<path d="M158.499 47.0676C158.499 45.9237 159.426 44.9963 160.57 44.9963L178.814 44.9963C179.958 44.9963 180.885 45.9237 180.885 47.0676L180.885 54.7101L158.499 54.7101L158.499 47.0676Z" fill="#E8F2FF"/>
<path d="M197.628 62.2088C197.256 62.2088 196.94 62.1241 196.678 61.9547C196.42 61.7853 196.24 61.5533 196.137 61.2587L196.684 60.9384C196.838 61.3729 197.159 61.5901 197.645 61.5901C197.884 61.5901 198.063 61.5441 198.181 61.452C198.302 61.3563 198.363 61.233 198.363 61.082C198.363 60.9236 198.298 60.804 198.17 60.7229C198.041 60.6383 197.812 60.5462 197.485 60.4468C197.3 60.3915 197.151 60.34 197.037 60.2921C196.923 60.2442 196.802 60.178 196.673 60.0933C196.547 60.0049 196.454 59.8963 196.391 59.7674C196.328 59.6385 196.297 59.4875 196.297 59.3145C196.297 58.972 196.419 58.7014 196.662 58.5025C196.905 58.3 197.197 58.1987 197.54 58.1987C197.849 58.1987 198.12 58.2742 198.352 58.4252C198.584 58.5762 198.762 58.7842 198.888 59.0493L198.352 59.3586C198.19 58.9978 197.919 58.8173 197.54 58.8173C197.356 58.8173 197.208 58.8615 197.098 58.9499C196.987 59.0346 196.932 59.1506 196.932 59.2979C196.932 59.4415 196.987 59.5557 197.098 59.6403C197.212 59.7214 197.416 59.8079 197.711 59.8999C197.858 59.9478 197.965 59.9846 198.031 60.0104C198.101 60.0325 198.197 60.0693 198.319 60.1209C198.444 60.1724 198.538 60.224 198.6 60.2755C198.663 60.3271 198.729 60.3915 198.799 60.4689C198.873 60.5462 198.924 60.6346 198.954 60.734C198.983 60.8334 198.998 60.9457 198.998 61.0709C198.998 61.4207 198.871 61.6988 198.617 61.905C198.367 62.1075 198.037 62.2088 197.628 62.2088Z" fill="#718EBF"/>
<path d="M185.362 31.6861C185.362 30.5421 186.29 29.6147 187.434 29.6147L205.678 29.6147C206.822 29.6147 207.749 30.5421 207.749 31.6861L207.749 54.7087L185.362 54.7087L185.362 31.6861Z" fill="#05796B"/>
<path d="M225.612 62.2093C225.24 62.2093 224.923 62.1246 224.662 61.9552C224.404 61.7858 224.223 61.5538 224.12 61.2592L224.667 60.9389C224.822 61.3734 225.142 61.5906 225.628 61.5906C225.868 61.5906 226.046 61.5446 226.164 61.4525C226.285 61.3568 226.346 61.2334 226.346 61.0825C226.346 60.9241 226.282 60.8044 226.153 60.7234C226.024 60.6387 225.796 60.5467 225.468 60.4473C225.284 60.392 225.135 60.3405 225.021 60.2926C224.906 60.2447 224.785 60.1785 224.656 60.0938C224.531 60.0054 224.437 59.8968 224.374 59.7679C224.312 59.639 224.28 59.488 224.28 59.3149C224.28 58.9725 224.402 58.7018 224.645 58.503C224.888 58.3005 225.181 58.1992 225.523 58.1992C225.833 58.1992 226.103 58.2747 226.335 58.4257C226.567 58.5766 226.746 58.7847 226.871 59.0498L226.335 59.3591C226.173 58.9983 225.903 58.8178 225.523 58.8178C225.339 58.8178 225.192 58.862 225.081 58.9504C224.971 59.0351 224.916 59.1511 224.916 59.2984C224.916 59.442 224.971 59.5561 225.081 59.6408C225.196 59.7218 225.4 59.8084 225.694 59.9004C225.842 59.9483 225.949 59.9851 226.015 60.0109C226.085 60.033 226.181 60.0698 226.302 60.1214C226.427 60.1729 226.521 60.2245 226.584 60.276C226.646 60.3276 226.713 60.392 226.783 60.4694C226.856 60.5467 226.908 60.6351 226.937 60.7345C226.967 60.8339 226.981 60.9462 226.981 61.0714C226.981 61.4212 226.854 61.6993 226.6 61.9055C226.35 62.108 226.02 62.2093 225.612 62.2093Z" fill="#718EBF"/>
<path d="M212.226 19.5445C212.226 18.4005 213.153 17.4731 214.297 17.4731L232.542 17.4731C233.686 17.4731 234.613 18.4005 234.613 19.5444L234.613 54.7094L212.226 54.7094L212.226 19.5445Z" fill="#05796B"/>
</svg>
