<svg width="22" height="22" viewBox="0 0 22 22" fill="none" xmlns="http://www.w3.org/2000/svg">
<path fill-rule="evenodd" clip-rule="evenodd" d="M0.5 11C0.5 5.20101 5.20101 0.5 11 0.5C16.799 0.5 21.5 5.20101 21.5 11C21.5 16.799 16.799 21.5 11 21.5C5.20101 21.5 0.5 16.799 0.5 11ZM8.87896 7.81803C8.58607 7.52513 8.1112 7.52513 7.8183 7.81803C7.52541 8.11092 7.52541 8.5858 7.8183 8.87869L9.93963 11L7.81831 13.1213C7.52542 13.4142 7.52542 13.8891 7.81831 14.182C8.1112 14.4749 8.58608 14.4749 8.87897 14.182L11.0003 12.0607L13.1216 14.182C13.4145 14.4749 13.8894 14.4749 14.1823 14.182C14.4752 13.8891 14.4752 13.4142 14.1823 13.1213L12.0609 11L14.1823 8.87869C14.4752 8.5858 14.4752 8.11092 14.1823 7.81803C13.8894 7.52513 13.4145 7.52513 13.1216 7.81803L11.0003 9.93935L8.87896 7.81803Z" fill="#FF6954" fill-opacity="0.32"/>
</svg>
