<svg width="22" height="22" viewBox="0 0 22 22" fill="none" xmlns="http://www.w3.org/2000/svg">
<path fill-rule="evenodd" clip-rule="evenodd" d="M0.5 11C0.5 5.20101 5.20101 0.5 11 0.5C16.799 0.5 21.5 5.20101 21.5 11C21.5 16.799 16.799 21.5 11 21.5C5.20101 21.5 0.5 16.799 0.5 11ZM14.7127 9.71969C15.0055 9.4268 15.0055 8.95192 14.7127 8.65903C14.4198 8.36614 13.9449 8.36614 13.652 8.65903L9.93968 12.3713L8.34869 10.7804C8.0558 10.4875 7.58092 10.4875 7.28803 10.7804C6.99514 11.0732 6.99514 11.5481 7.28803 11.841L9.40935 13.9623C9.70224 14.2552 10.1771 14.2552 10.47 13.9623L14.7127 9.71969Z" fill="white"/>
</svg>
